<svg width="50" height="25" viewBox="0 0 50 25" fill="none" xmlns="http://www.w3.org/2000/svg">
<path d="M25.3521 8.49375L27.6667 4.45833L35.5292 3.95417L35.8042 3.4625L28.5375 2.95833L30.2458 0.0125001H43.725C47.8708 0.0125001 50.9333 1.50208 49.7396 5.84583C49.3854 7.175 47.7 10.4979 42.7479 11.8854C43.8042 12.0104 46.4146 13.1688 45.9562 16.1708C45.1562 21.5 38.2687 24.0333 34.4292 24.0333L18.5104 24.0458L17.7188 20.9625L26.0625 20.3792L26.3479 19.8854L17.2937 19.3354L16.3208 15.6792L29.1917 14.9229L29.4771 14.4417L6.36042 12.9979L7.47292 11.0708L32.3646 9.45625L32.6521 8.975L25.3521 8.49375ZM35.7687 9.29583L38.0604 9.28333C39.5979 9.27292 41.1896 8.575 41.775 7.1625C42.3146 5.84583 41.5917 4.72292 40.6292 4.73333H38.4062L35.7687 9.29583ZM33.1229 13.8688L30.3604 18.6708H32.9958C34.2229 18.6708 36.4125 18.0625 37.0875 16.3208C37.7167 14.6938 36.5604 13.8688 35.7583 13.8688H33.1229ZM13.0417 21.2833L11.4375 24.0229L0 24.0438L1.1125 22.1208L13.0417 21.2833ZM13.8437 0L23.0458 0.0125001L23.7458 2.6125L12.7542 1.925L13.8437 0ZM24.2604 4.67708L25.2687 8.49375L9.55625 7.4625L10.6562 5.54583L24.2604 4.67708ZM16.2604 15.6792L14.2667 19.1396L3.18333 18.5104L4.29583 16.5854L16.2604 15.6792Z" fill="black"/>
</svg>
