<svg width="50" height="18" viewBox="0 0 50 18" fill="none" xmlns="http://www.w3.org/2000/svg">
<path d="M49.9995 0L13.4203 15.575C10.387 16.8597 7.83976 17.5021 5.77865 17.5021C3.44532 17.5021 1.75296 16.6847 0.70157 15.05C0.041848 14 -0.152596 12.6681 0.118237 11.0542C0.390459 9.44028 1.1099 7.71944 2.27657 5.89167C3.24879 4.4125 4.84393 2.46806 7.06199 0.0583331C6.30867 1.24266 5.75675 2.54361 5.42865 3.90833C4.84532 6.39722 5.37032 8.225 7.00365 9.39167C7.78143 9.93611 8.85088 10.2083 10.212 10.2083C11.2995 10.2083 12.5245 10.0333 13.887 9.68333L49.9995 0Z" fill="black"/>
</svg>
