<svg width="50" height="39" viewBox="0 0 50 39" fill="none" xmlns="http://www.w3.org/2000/svg">
<path d="M49.6774 0.538406C48.8086 -0.57201 47.2899 0.317573 46.6211 0.705073C41.8628 3.50924 41.1607 8.44674 39.5024 11.2822C38.1982 13.553 36.0607 15.2197 34.1274 15.3488C32.6982 15.4509 31.1482 15.1738 29.6107 14.5051C25.8461 12.878 23.819 10.7717 23.3253 10.4009C22.3107 9.63007 14.5128 2.03632 8.15863 1.72591C8.15863 1.72591 7.38363 0.163407 7.18988 0.136323C6.72738 0.08424 6.25238 1.07591 5.90654 1.18007C5.59404 1.29049 5.04613 0.113407 4.72946 0.16549C4.41071 0.207157 4.10029 1.38632 3.47946 1.99257C3.02113 2.43632 2.46696 2.40924 2.15238 2.95716C2.04404 3.15716 2.08154 3.50924 1.95863 3.83216C1.69404 4.49882 0.81071 4.56966 0.802377 5.28424C0.802377 6.07799 1.54613 6.23007 2.19613 6.78424C2.71279 7.22591 2.74821 7.53841 3.35029 7.74466C3.88779 7.92799 4.66696 7.35507 5.35863 7.56132C5.93571 7.73007 6.48988 7.85299 6.61279 8.44257C6.72529 8.97591 6.61279 9.81341 5.90446 9.71966C5.67113 9.68841 4.65863 9.35716 3.40863 9.49049C1.89821 9.65091 0.17321 10.1342 0.00446011 11.803C-0.0809565 12.7342 1.07529 13.8238 2.20238 13.6072C2.97529 13.4592 2.61071 12.553 3.03363 12.1155C3.58988 11.553 6.72529 14.0822 9.64196 14.0822C10.8774 14.0822 11.7899 13.7697 12.6982 12.8217C12.7815 12.7613 12.892 12.6092 13.0211 12.5926C13.1664 12.6289 13.304 12.691 13.4274 12.7759C15.7836 14.6447 17.5607 18.4009 26.1982 18.4447C27.4107 18.4592 28.8024 19.0259 29.9399 20.0634C30.9399 20.9655 31.5315 22.4072 32.1003 23.8655C32.9711 26.0592 34.519 28.1759 36.8753 30.5384C37.0003 30.6801 38.9378 32.1634 39.0836 32.2738C39.1086 32.2947 39.2586 32.6217 39.194 32.8051C39.1524 34.2426 38.9378 38.3676 42.0378 38.5405C42.8003 38.5822 42.6107 38.0592 42.6107 37.6863C42.6003 36.9759 42.4753 36.2592 42.8461 35.5197C43.3732 34.5238 41.7503 34.0426 41.7857 31.8613C41.8253 30.228 40.442 30.5051 39.7357 29.2572C39.3399 28.5426 38.969 28.1488 39.0065 27.2863C39.1586 22.328 37.9295 19.0613 37.3295 18.2717C36.8565 17.6592 36.4482 17.4322 36.8982 17.1467C39.4815 15.4488 40.0753 13.8676 40.0753 13.8676C41.4503 10.6572 42.692 7.73216 44.3982 6.43007C44.744 6.18007 45.6253 5.51341 46.1732 5.26341C47.7628 4.50924 48.617 4.05924 49.0649 3.62174C49.8065 2.91966 50.3878 1.42799 49.6774 0.538406Z" fill="black"/>
</svg>
